PathFileType	4	(X/Y/Z)	./resultDataOpenSim/trcMotMarkerGrf/sub10/qtm-15-07.trc
DataRate	CameraRate	NumFrames	NumMarkers	Units	OrigDataRate	OrigDataStartFrame	OrigNumFrames
250.000000	250.000000	12	24	m	250.000000	456	520
Frame#	Time	L.Toe.Tip			R.Toe.Tip			L.Ankle.Lat			R.Ankle.Lat			L.Ankle.Med			R.Ankle.Med			L.Heel			R.Heel			L.Knee.Lat			R.Knee.Lat			L.Knee.Med			R.Knee.Med			L.Thigh.Upper			R.Thigh.Upper			L.ASIS			R.ASIS			V.Sacral			L.Acromium			R.Acromium			C7			L.Elbow			R.Elbow			L.Wrist.Lat			R.Wrist.Lat
		X1	Y1	Z1	X2	Y2	Z2	X3	Y3	Z3	X4	Y4	Z4	X5	Y5	Z5	X6	Y6	Z6	X7	Y7	Z7	X8	Y8	Z8	X9	Y9	Z9	X10	Y10	Z10	X11	Y11	Z11	X12	Y12	Z12	X13	Y13	Z13	X14	Y14	Z14	X15	Y15	Z15	X16	Y16	Z16	X17	Y17	Z17	X18	Y18	Z18	X19	Y19	Z19	X20	Y20	Z20	X21	Y21	Z21	X22	Y22	Z22	X23	Y23	Z23	X24	Y24	Z24

456	1.82	1.6393541	0.058666851	-0.16476099	0.80142334	0.038189976	-0.15056729	1.5063776	0.064801767	-0.20900529	0.70180439	0.12921145	-0.095912437	1.5066049	0.088946782	-0.12666151	0.74095878	0.1469149	-0.17308622	1.4420903	0.028796764	-0.17142559	0.65244639	0.14510217	-0.14286724	1.4252233	0.44620968	-0.2439826	0.9694525	0.42436998	-0.02525611	1.4363432	0.42551632	-0.12350343	1.0119163	0.42047495	-0.14736524	1.2776593	0.79303254	-0.31068054	1.1072858	0.80669603	0.042972474	1.3014511	0.89584181	-0.21701112	1.216481	0.88643606	0.017131776	1.0759808	0.91145969	-0.18301126	1.1960919	1.3752944	-0.28338942	1.1489555	1.3610437	0.028923457	1.1021673	1.3926995	-0.14533215	1.0501429	1.078276	-0.40159569	1.151945	1.0350289	0.18422181	1.1870893	0.92235564	-0.54108864	1.3951209	1.0564041	0.25742935
457	1.824	1.6412952	0.055804268	-0.16382424	0.80208112	0.03812988	-0.15040157	1.5083498	0.06474731	-0.208769	0.70498585	0.13150662	-0.095128289	1.5087164	0.088690823	-0.12628337	0.7449784	0.14823177	-0.17204202	1.4432682	0.029824697	-0.17172267	0.65655576	0.14845166	-0.14234828	1.4344056	0.4473694	-0.24271842	0.97592271	0.42343353	-0.024586728	1.4440369	0.42602427	-0.12223198	1.0190021	0.41873332	-0.14634091	1.2849633	0.79266716	-0.31034566	1.1143939	0.80531756	0.043187606	1.3082315	0.89519855	-0.21656154	1.2237644	0.88506428	0.017444256	1.0828071	0.91096457	-0.18270183	1.2019355	1.3740585	-0.28392184	1.1554949	1.3604013	0.028621165	1.108044	1.391613	-0.14584103	1.056529	1.0765775	-0.40155808	1.1598997	1.0338791	0.18287132	1.1929977	0.91981225	-0.54032465	1.4026344	1.054315	0.25423997
458	1.828	1.6431942	0.053204594	-0.16286567	0.80279362	0.038077724	-0.15025321	1.5102813	0.064837585	-0.20853614	0.7083719	0.13384918	-0.094294764	1.5106457	0.088578815	-0.125922	0.74929674	0.149507	-0.17090629	1.4444138	0.030805513	-0.1720745	0.66099149	0.15183517	-0.14184029	1.4437722	0.44878699	-0.24144527	0.98262034	0.42241583	-0.023828723	1.4518192	0.42678248	-0.12083194	1.0263204	0.4169034	-0.14519289	1.2923297	0.7925063	-0.31001755	1.1216145	0.80387662	0.043490063	1.3150264	0.89463006	-0.21620804	1.2310896	0.88370112	0.017674411	1.0897101	0.91052224	-0.18207871	1.2077559	1.3728605	-0.28444748	1.1620902	1.3598671	0.028331873	1.1139441	1.3906156	-0.14634304	1.0629673	1.0749079	-0.40154751	1.1676604	1.0328849	0.18167381	1.1989745	0.91732133	-0.53956721	1.410088	1.0522128	0.25106841
459	1.832	1.6449037	0.05071379	-0.16206115	0.80357702	0.03803481	-0.15011657	1.5120318	0.064986109	-0.20827557	0.71198129	0.13624378	-0.093423722	1.5123095	0.088529293	-0.12554771	0.75392336	0.15073822	-0.16969662	1.4454322	0.031673521	-0.17240013	0.66578415	0.15524493	-0.14135376	1.4531984	0.45036735	-0.24013046	0.98956038	0.42133361	-0.022978929	1.459539	0.42773038	-0.11933868	1.0338828	0.41498818	-0.14390416	1.299731	0.79255535	-0.30969174	1.1289894	0.80236375	0.043876852	1.321855	0.89415318	-0.21593312	1.2384348	0.88235387	0.017809891	1.0967147	0.9101441	-0.18125791	1.2135452	1.3717001	-0.28496027	1.168726	1.3594378	0.028044483	1.1198538	1.3896936	-0.14682945	1.0694477	1.0732798	-0.40155175	1.1749297	1.0321035	0.18080911	1.2050168	0.91489234	-0.53881182	1.4174907	1.0500943	0.24791127
460	1.836	1.6463262	0.048406831	-0.16140038	0.80445744	0.03798756	-0.14995692	1.513512	0.065123237	-0.20795096	0.71584325	0.13865983	-0.092525061	1.5136853	0.088493845	-0.12513388	0.75888024	0.15188897	-0.16842568	1.4463001	0.032402572	-0.17264566	0.67095831	0.15867041	-0.14088833	1.462568	0.45202328	-0.23875302	0.99670833	0.42025638	-0.022037662	1.4671735	0.42882305	-0.11779165	1.0416972	0.4129834	-0.14246188	1.3071459	0.79279215	-0.30936138	1.1365738	0.80076341	0.044335205	1.3287446	0.89380017	-0.21569979	1.2457759	0.88102875	0.017845989	1.103721	0.90980713	-0.18057239	1.2192961	1.3705812	-0.28545814	1.1753667	1.3591095	0.027748907	1.1257623	1.3888298	-0.14728758	1.0759729	1.071695	-0.40155313	1.1816621	1.0315485	0.18026731	1.2111246	0.91252523	-0.53805706	1.4248465	1.047952	0.2447763
461	1.84	1.6474755	0.046430504	-0.16068624	0.80546601	0.037902295	-0.14973029	1.5147338	0.065236905	-0.20752916	0.71998713	0.14102975	-0.091606552	1.5148052	0.08845706	-0.12465222	0.76419408	0.15288806	-0.16710354	1.4470472	0.033007165	-0.17279673	0.67651461	0.16208726	-0.14043962	1.4717904	0.45367426	-0.23730436	1.004013	0.41925247	-0.020996758	1.4747682	0.43002088	-0.11621297	1.0497608	0.41088737	-0.14086187	1.3145622	0.7931791	-0.30901858	1.1443901	0.79906683	0.044837664	1.3357173	0.89361106	-0.21547109	1.2530989	0.87973029	0.017783604	1.1105943	0.90937264	-0.18015721	1.225005	1.3695064	-0.28593806	1.1819818	1.3588799	0.027447728	1.1316599	1.3880111	-0.14770996	1.0825464	1.0701455	-0.40152812	1.1879515	1.0311971	0.17995201	1.2172962	0.91021579	-0.53730284	1.4321463	1.0457695	0.24168115
462	1.844	1.6484437	0.044849263	-0.15978383	0.80662176	0.037733822	-0.14941501	1.5157744	0.065352889	-0.20699159	0.72444204	0.14329596	-0.090670734	1.5157241	0.088420442	-0.12409088	0.7698713	0.15366232	-0.16573541	1.4477097	0.033509501	-0.17285089	0.68242506	0.16546473	-0.13999488	1.4808181	0.45524728	-0.23579181	1.0114196	0.41834933	-0.019861497	1.4823688	0.43126925	-0.11460784	1.0580604	0.40870345	-0.13910906	1.3219793	0.79367572	-0.30865801	1.1523653	0.7972814	0.045358521	1.3427797	0.8936168	-0.21523091	1.2604	0.87846397	0.017623608	1.1172591	0.90864752	-0.17985443	1.2306702	1.3684753	-0.2863954	1.1885684	1.3587375	0.027147014	1.1375352	1.3872307	-0.14809354	1.0891635	1.0686161	-0.40145803	1.1939829	1.0309941	0.17976417	1.2235283	0.90796142	-0.53655013	1.4393676	1.0435303	0.23864437
463	1.848	1.6493187	0.043621238	-0.15876152	0.80791896	0.037438172	-0.14901652	1.5167132	0.065489736	-0.20635576	0.7292312	0.14543932	-0.089708223	1.5165014	0.088382848	-0.12347258	0.77587478	0.15420336	-0.16430894	1.4483026	0.033923812	-0.17280763	0.68864769	0.16878442	-0.13952611	1.4896422	0.45668095	-0.23423859	1.0188411	0.41755583	-0.018677032	1.4900005	0.43249201	-0.11296915	1.0665803	0.40642794	-0.13721037	1.3293988	0.79424838	-0.30827729	1.1603314	0.79542422	0.045896378	1.3499209	0.89381863	-0.21498785	1.2676763	0.87723736	0.017363695	1.1237774	0.9076234	-0.17943153	1.236287	1.3674874	-0.28682864	1.1951562	1.3586554	0.026843545	1.1433734	1.3864879	-0.14842786	1.0958151	1.0670878	-0.40133761	1.2000019	1.030873	0.17963249	1.229818	0.90576443	-0.53580042	1.446492	1.0412399	0.23567666
464	1.852	1.650125	0.042677391	-0.15781252	0.80933512	0.036993648	-0.14854894	1.5175849	0.06563623	-0.20568885	0.73435521	0.14746056	-0.088696611	1.5171925	0.088334391	-0.12284896	0.78212365	0.1546001	-0.16280055	1.4488231	0.034263613	-0.17268385	0.69514961	0.17205209	-0.13899577	1.4982484	0.45792401	-0.23267085	1.0261774	0.41688156	-0.017495055	1.4976572	0.43361613	-0.11129784	1.0753083	0.40404311	-0.13516777	1.3368168	0.79487214	-0.30787861	1.1681751	0.79351336	0.046471914	1.3571139	0.89418056	-0.21476571	1.2749231	0.87605544	0.016999835	1.1303581	0.90658066	-0.17875122	1.2418504	1.3665426	-0.28724054	1.2017764	1.3586048	0.026529074	1.149155	1.385791	-0.14869059	1.1024923	1.0655472	-0.40116868	1.2061674	1.0308049	0.17954442	1.2361635	0.90363164	-0.53505237	1.453522	1.0389259	0.23277592
465	1.856	1.650829	0.04197386	-0.15710932	0.81084879	0.036432506	-0.14802534	1.5183631	0.065763978	-0.20508342	0.73978433	0.1493631	-0.087611442	1.5178256	0.088265289	-0.12227385	0.78852214	0.15496856	-0.16121118	1.4492611	0.034545302	-0.17251733	0.70190897	0.17528924	-0.13836632	1.5065853	0.45892349	-0.23110865	1.0334159	0.41630027	-0.01629547	1.5052445	0.43460838	-0.10964882	1.0842366	0.40152648	-0.1329795	1.3442215	0.79553003	-0.30747008	1.1759541	0.79157199	0.047116024	1.3643178	0.89464893	-0.21458689	1.2821347	0.8749158	0.016533018	1.1371863	0.90583515	-0.1777924	1.2473611	1.3656398	-0.28763436	1.2084229	1.3585731	0.02620106	1.1548598	1.3851547	-0.14886333	1.1091853	1.0639978	-0.4009535	1.2124679	1.0308334	0.17954692	1.242565	0.90156907	-0.53430084	1.4604683	1.0366092	0.22993188
466	1.86	1.6513937	0.041471804	-0.15670101	0.81244044	0.035845202	-0.14746111	1.5189931	0.065855964	-0.20460639	0.74546779	0.15116078	-0.086437471	1.518387	0.088172162	-0.12177708	0.79499553	0.15535847	-0.15957354	1.449609	0.034783007	-0.17235093	0.70889186	0.1785132	-0.13760098	1.5145766	0.45961691	-0.22957354	1.0406884	0.41571612	-0.014979808	1.5126113	0.43547012	-0.10811195	1.0933597	0.39886332	-0.13064718	1.3515943	0.79621405	-0.30706142	1.1837944	0.78963093	0.047853013	1.371488	0.89518618	-0.21445764	1.289305	0.8738108	0.015971796	1.144236	0.90545444	-0.17658627	1.252824	1.3647798	-0.28801099	1.2150544	1.3585629	0.025864791	1.160487	1.3845755	-0.14895773	1.1158858	1.0624556	-0.40069812	1.2188085	1.0310589	0.17970443	1.2490246	0.89957965	-0.53354029	1.4673315	1.0342904	0.22713893
467	1.864	1.6518227	0.041113795	-0.15649841	0.81407392	0.035334441	-0.1468756	1.5194572	0.065920202	-0.20426167	0.75135198	0.15288872	-0.085166342	1.5188434	0.088052773	-0.1213555	0.80151307	0.15575684	-0.15790853	1.4498723	0.03499009	-0.17221601	0.71605189	0.18174095	-0.13666514	1.5221389	0.45994727	-0.22809381	1.048174	0.41501304	-0.013476494	1.5197419	0.43618713	-0.1066996	1.1026661	0.39605186	-0.12817853	1.358914	0.79692244	-0.30665816	1.1916987	0.78771355	0.048652864	1.378588	0.89578655	-0.21436709	1.2964276	0.87273466	0.01532547	1.1513134	0.90528253	-0.17515585	1.2582459	1.3639684	-0.28836898	1.2216315	1.3585824	0.025526896	1.1660681	1.3840145	-0.14901972	1.1225895	1.0609358	-0.40041095	1.2251122	1.0315652	0.18005326	1.2555403	0.89766637	-0.53276759	1.4741039	1.0319709	0.22440975
